HIERARCHY
ROOT Hips
{
	OFFSET 0.00000 0.00000 0.00000
	CHANNELS 6 Xposition Yposition Zposition Zrotation Yrotation Xrotation 
	JOINT LHipJoint
	{
		OFFSET 0 0 0
		CHANNELS 3 Zrotation Yrotation Xrotation
		JOINT LeftHip
		{
			OFFSET 2.36090 -1.39315 1.24752
			CHANNELS 3 Zrotation Yrotation Xrotation
			JOINT LeftKnee
			{
				OFFSET 2.06810 -5.68207 0.00000
				CHANNELS 3 Zrotation Yrotation Xrotation
				JOINT LeftAnkle
				{
					OFFSET 2.46631 -6.77613 0.00000
					CHANNELS 3 Zrotation Yrotation Xrotation
					JOINT LeftToe
					{
						OFFSET 0.26031 -0.71520 1.99545
						CHANNELS 3 Zrotation Yrotation Xrotation
						End Site
						{
							OFFSET 0.00000 -0.00000 1.05957
						}
					}
				}
			}
		}
	}
	JOINT RHipJoint
	{
		OFFSET 0 0 0
		CHANNELS 3 Zrotation Yrotation Xrotation
		JOINT RightHip
		{
			OFFSET -2.25243 -1.39315 1.24752
			CHANNELS 3 Zrotation Yrotation Xrotation
			JOINT RightKnee
			{
				OFFSET -2.17343 -5.97145 0.00000
				CHANNELS 3 Zrotation Yrotation Xrotation
				JOINT RightAnkle
				{
					OFFSET -2.52372 -6.93386 0.00000
					CHANNELS 3 Zrotation Yrotation Xrotation
					JOINT RightToe
					{
						OFFSET -0.22538 -0.61923 2.11447
						CHANNELS 3 Zrotation Yrotation Xrotation
						End Site
						{
							OFFSET -0.00000 -0.00000 1.10506
						}
					}
				}
			}
		}
	}
	JOINT lowerback
	{
		OFFSET 0 0 0
		CHANNELS 3 Zrotation Yrotation Xrotation
		JOINT Chest
		{
			OFFSET 0.01594 2.13103 0.08007
			CHANNELS 3 Zrotation Yrotation Xrotation
			JOINT Chest2
			{
				OFFSET 0.01393 2.09723 0.18338
				CHANNELS 3 Zrotation Yrotation Xrotation
				JOINT lowerneck
				{
					OFFSET 0 0 0
					CHANNELS 3 Zrotation Yrotation Xrotation
					JOINT Neck
					{
						OFFSET 0.05351 1.38915 0.32494
						CHANNELS 3 Zrotation Yrotation Xrotation
						JOINT Head
						{
							OFFSET 0.00711 1.45992 -0.21666
							CHANNELS 3 Zrotation Yrotation Xrotation
							End Site
							{
								OFFSET -0.00433 1.47702 -0.11056
							}
						}
					}
				}
				JOINT LeftCollar
				{
					OFFSET 0 0 0
					CHANNELS 3 Zrotation Yrotation Xrotation
					JOINT LeftShoulder
					{
						OFFSET 2.87198 0.92249 0.11132
CHANNELS 3 Zrotation Xrotation Yrotation
						JOINT LeftElbow
						{
OFFSET 0 -5.527310 0.000000
CHANNELS 3 Zrotation Xrotation Yrotation
							JOINT LeftWrist
							{
OFFSET 0 -3.110590 0.000000
CHANNELS 3 Zrotation Xrotation Yrotation
								JOINT lhand
								{
									OFFSET 0 0 0
CHANNELS 3 Zrotation Xrotation Yrotation
									JOINT LFingers
									{
OFFSET 0 -0.419630 0.000000
CHANNELS 3 Zrotation Xrotation Yrotation
										End Site
										{
OFFSET 0 -0.338310 0.000000
										}
									}
								}
								JOINT LThumb
								{
OFFSET 0 0.000000 0.000000
CHANNELS 3 Zrotation Xrotation Yrotation
									End Site
									{
OFFSET 0 -0.343480 0.343480
									}
								}
							}
						}
					}
				}
				JOINT RightCollar
				{
					OFFSET 0 0 0
					CHANNELS 3 Zrotation Yrotation Xrotation
					JOINT RightShoulder
					{
						OFFSET -2.94710 0.68072 0.32187
CHANNELS 3 Zrotation Xrotation Yrotation
						JOINT RightElbow
						{
OFFSET 0 -5.253960 -0.000000
CHANNELS 3 Zrotation Xrotation Yrotation
							JOINT RightWrist
							{
OFFSET 0 -3.105670 0.000000
CHANNELS 3 Zrotation Xrotation Yrotation
								JOINT rhand
								{
									OFFSET 0 0 0
CHANNELS 3 Zrotation Xrotation Yrotation
									JOINT RFingers
									{
OFFSET 0 -0.498680 0.000000
CHANNELS 3 Zrotation Xrotation Yrotation
										End Site
										{
OFFSET 0 -0.402040 0.000000
										}
									}
								}
								JOINT RThumb
								{
OFFSET 0 0.000000 0.000000
CHANNELS 3 Zrotation Xrotation Yrotation
									End Site
									{
OFFSET 0 -0.408180 0.408180
									}
								}
							}
						}
					}
				}
			}
		}
	}
}
MOTION
Frames: 13
Frame Time: 0.008333333333333333
3.677038 15.614961 31.280208 31.994169 -84.793649 37.067144 0.000000 0.000000 0.000000 0.000000 0.000000 0.000000 0.000000 0.000000 0.000000 0.000000 0.000000 0.000000 0.000000 0.000000 0.000000 0.000000 0.000000 0.000000 -21.637456 25.170057 -94.314852 -2.230924 -9.331348 26.837343 1.148466 -18.562663 -6.747892 -0.206309 -2.924557 8.068729 2.916043 4.804631 8.744705 4.212319 5.985633 7.614609 2.367257 2.813335 2.896732 12.207583 8.833185 -12.865734 4.194215 7.129180 27.067522 0.453852 4.692147 11.374211 0.000000 0.000000 0.000000 21.443287 16.596146 -28.260955 22.372353 -33.395314 6.789684 -2.989556 -56.024163 -2.353213 0.000000 0.000000 0.000000 -7.125000 0.000000 0.000000 -23.314227 31.669477 -8.212574 0.000000 0.000000 0.000000 -25.415415 -15.830684 76.948662 -85.722804 -59.930743 -56.296737 32.430574 -58.275183 10.228416 0.000000 0.000000 0.000000 7.125000 0.000000 0.000000 45.495758 35.336848 15.194708
3.674707 15.612284 31.278041 32.077677 -84.772989 37.155965 0.000000 0.000000 0.000000 0.000000 0.000000 0.000000 0.000000 0.000000 0.000000 0.000000 0.000000 0.000000 0.000000 0.000000 0.000000 0.000000 0.000000 0.000000 -21.693556 25.087980 -94.489807 -2.230606 -9.330706 26.835423 1.147192 -18.552560 -6.756412 -0.209099 -2.943879 8.122637 2.933346 4.796139 8.847927 4.222747 5.974513 7.647245 2.362580 2.806667 2.875745 12.228995 8.830985 -12.860740 4.143548 7.144527 26.985710 0.431710 4.693134 11.344952 0.000000 0.000000 0.000000 21.476961 16.502666 -28.367946 22.403885 -33.430477 6.807019 -3.147593 -56.084987 -2.322053 0.000000 0.000000 0.000000 -7.125000 0.000000 0.000000 -23.424573 31.633267 -8.280306 0.000000 0.000000 0.000000 -25.393124 -15.818576 76.924155 -85.658650 -59.928635 -56.241215 32.499089 -58.269382 10.195502 0.000000 0.000000 0.000000 7.125000 0.000000 0.000000 45.509737 35.295010 15.275539
3.672312 15.609607 31.276068 32.135729 -84.750516 37.262275 0.000000 0.000000 0.000000 0.000000 0.000000 0.000000 0.000000 0.000000 0.000000 0.000000 0.000000 0.000000 0.000000 0.000000 0.000000 0.000000 0.000000 0.000000 -21.742660 25.008301 -94.656212 -2.230676 -9.330776 26.835705 1.145854 -18.542133 -6.766486 -0.211564 -2.960999 8.170262 2.959976 4.776765 8.951278 4.230778 5.949856 7.680075 2.351167 2.793845 2.856441 12.232659 8.838241 -12.855034 4.103179 7.173412 26.910116 0.418184 4.699756 11.317054 0.000000 0.000000 0.000000 21.532336 16.427777 -28.482711 22.447142 -33.478595 6.830831 -3.286522 -56.203978 -2.297888 0.000000 0.000000 0.000000 -7.125000 0.000000 0.000000 -23.522288 31.604312 -8.338709 0.000000 0.000000 0.000000 -25.364873 -15.830694 76.933525 -85.597217 -59.926592 -56.188024 32.567215 -58.275371 10.176903 0.000000 0.000000 0.000000 7.125000 0.000000 0.000000 45.531295 35.265351 15.340565
3.669916 15.607023 31.274282 32.202257 -84.728228 37.354659 0.000000 0.000000 0.000000 0.000000 0.000000 0.000000 0.000000 0.000000 0.000000 0.000000 0.000000 0.000000 0.000000 0.000000 0.000000 0.000000 0.000000 0.000000 -21.790088 24.929785 -94.817446 -2.230979 -9.331406 26.837710 1.144515 -18.531474 -6.774045 -0.212912 -2.970666 8.197066 2.991404 4.750917 9.054816 4.235875 5.917280 7.712439 2.334631 2.777390 2.837557 12.225842 8.850994 -12.850585 4.071614 7.209051 26.839180 0.410619 4.709499 11.290646 0.000000 0.000000 0.000000 21.601916 16.363182 -28.600316 22.496500 -33.533513 6.858090 -3.414459 -56.362141 -2.286160 0.000000 0.000000 0.000000 -7.125000 0.000000 0.000000 -23.614693 31.587327 -8.387658 0.000000 0.000000 0.000000 -25.333641 -15.858089 76.964088 -85.537182 -59.924596 -56.136045 32.629239 -58.289044 10.165290 0.000000 0.000000 0.000000 7.125000 0.000000 0.000000 45.553645 35.242864 15.393947
3.667521 15.604504 31.272608 32.272126 -84.706547 37.438934 0.000000 0.000000 0.000000 0.000000 0.000000 0.000000 0.000000 0.000000 0.000000 0.000000 0.000000 0.000000 0.000000 0.000000 0.000000 0.000000 0.000000 0.000000 -21.835975 24.852956 -94.974158 -2.231453 -9.332407 26.840854 1.143176 -18.520865 -6.779226 -0.213466 -2.974828 8.208551 3.026636 4.719996 9.158483 4.238532 5.878517 7.744378 2.313953 2.758119 2.818956 12.211168 8.868164 -12.847019 4.045566 7.250416 26.772658 0.407251 4.721778 11.265717 0.000000 0.000000 0.000000 21.683818 16.306553 -28.720400 22.550502 -33.593551 6.887967 -3.528928 -56.552182 -2.283564 0.000000 0.000000 0.000000 -7.125000 0.000000 0.000000 -23.699218 31.579389 -8.427792 0.000000 0.000000 0.000000 -25.301086 -15.897605 77.011915 -85.481796 -59.922742 -56.088092 32.685275 -58.312668 10.161329 0.000000 0.000000 0.000000 7.125000 0.000000 0.000000 45.577303 35.228106 15.434974
3.665126 15.602038 31.270988 32.338843 -84.686468 37.520163 0.000000 0.000000 0.000000 0.000000 0.000000 0.000000 0.000000 0.000000 0.000000 0.000000 0.000000 0.000000 0.000000 0.000000 0.000000 0.000000 0.000000 0.000000 -21.879725 24.779547 -95.124993 -2.232087 -9.333675 26.844799 1.141838 -18.510790 -6.780987 -0.213325 -2.973700 8.205451 3.066088 4.683573 9.262257 4.238250 5.833076 7.775728 2.288520 2.735857 2.800568 12.188694 8.890356 -12.844201 4.022669 7.298886 26.712493 0.407462 4.736995 11.243032 0.000000 0.000000 0.000000 21.781534 16.258364 -28.843688 22.609258 -33.658718 6.920515 -3.618823 -56.779245 -2.289623 0.000000 0.000000 0.000000 -7.125000 0.000000 0.000000 -23.767555 31.580587 -8.455479 0.000000 0.000000 0.000000 -25.269172 -15.950584 77.079830 -85.438750 -59.921263 -56.050824 32.732336 -58.355150 10.170135 0.000000 0.000000 0.000000 7.125000 0.000000 0.000000 45.603792 35.226063 15.455969
3.662730 15.599630 31.269541 32.422939 -84.667549 37.575962 0.000000 0.000000 0.000000 0.000000 0.000000 0.000000 0.000000 0.000000 0.000000 0.000000 0.000000 0.000000 0.000000 0.000000 0.000000 0.000000 0.000000 0.000000 -21.921737 24.708628 -95.267602 -2.232779 -9.335059 26.849092 1.140673 -18.501643 -6.778751 -0.212199 -2.965911 8.183756 3.106410 4.644775 9.367595 4.236983 5.784913 7.806094 2.261581 2.712378 2.780384 12.163671 8.914228 -12.845554 4.000816 7.348688 26.659511 0.409064 4.753024 11.223822 0.000000 0.000000 0.000000 21.887127 16.213362 -28.968020 22.669751 -33.725681 6.954106 -3.665155 -57.026815 -2.301301 0.000000 0.000000 0.000000 -7.125000 0.000000 0.000000 -23.804842 31.589026 -8.465730 0.000000 0.000000 0.000000 -25.243630 -16.009182 77.159041 -85.416444 -59.920479 -56.031571 32.760512 -58.419703 10.198464 0.000000 0.000000 0.000000 7.125000 0.000000 0.000000 45.632251 35.244527 15.442784
3.660392 15.597263 31.268132 32.510422 -84.650298 37.622404 0.000000 0.000000 0.000000 0.000000 0.000000 0.000000 0.000000 0.000000 0.000000 0.000000 0.000000 0.000000 0.000000 0.000000 0.000000 0.000000 0.000000 0.000000 -21.962323 24.640887 -95.404403 -2.233455 -9.336411 26.853318 1.139574 -18.493008 -6.775226 -0.210889 -2.956711 8.158155 3.144677 4.606656 9.473129 4.236582 5.737636 7.835850 2.236672 2.689232 2.759103 12.147605 8.937214 -12.853882 3.965593 7.396991 26.619236 0.405035 4.768234 11.211863 0.000000 0.000000 0.000000 21.989344 16.165558 -29.083467 22.726789 -33.788690 6.985794 -3.679821 -57.271325 -2.311725 0.000000 0.000000 0.000000 -7.125000 0.000000 0.000000 -23.818304 31.597838 -8.465797 0.000000 0.000000 0.000000 -25.223524 -16.068683 77.242027 -85.407389 -59.920157 -56.023762 32.772147 -58.499527 10.241825 0.000000 0.000000 0.000000 7.125000 0.000000 0.000000 45.661391 35.279230 15.401949
3.658137 15.594939 31.266723 32.597358 -84.635151 37.663125 0.000000 0.000000 0.000000 0.000000 0.000000 0.000000 0.000000 0.000000 0.000000 0.000000 0.000000 0.000000 0.000000 0.000000 0.000000 0.000000 0.000000 0.000000 -22.001353 24.577059 -95.535230 -2.234089 -9.337679 26.857333 1.138518 -18.484836 -6.771069 -0.209621 -2.947552 8.132722 3.179620 4.570303 9.578453 4.237780 5.692548 7.865016 2.215255 2.666969 2.736770 12.145633 8.958349 -12.871213 3.910219 7.442643 26.595494 0.392213 4.781972 11.209539 0.000000 0.000000 0.000000 22.084029 16.112579 -29.185409 22.778148 -33.845262 7.014327 -3.661504 -57.504728 -2.318488 0.000000 0.000000 0.000000 -7.125000 0.000000 0.000000 -23.806397 31.604883 -8.456357 0.000000 0.000000 0.000000 -25.209434 -16.127721 77.326991 -85.411335 -59.920298 -56.027144 32.765313 -58.594918 10.301215 0.000000 0.000000 0.000000 7.125000 0.000000 0.000000 45.690910 35.331434 15.331076
3.655883 15.592752 31.265384 32.665242 -84.622914 37.713129 0.000000 0.000000 0.000000 0.000000 0.000000 0.000000 0.000000 0.000000 0.000000 0.000000 0.000000 0.000000 0.000000 0.000000 0.000000 0.000000 0.000000 0.000000 -22.036225 24.520782 -95.656704 -2.234654 -9.338670 26.860587 1.137876 -18.479920 -6.762894 -0.207383 -2.931881 8.089207 3.210338 4.541225 9.681421 4.243204 5.656605 7.893351 2.200004 2.648864 2.713953 12.153152 8.971933 -12.896857 3.847777 7.476101 26.579027 0.374194 4.790791 11.211925 0.000000 0.000000 0.000000 22.160355 16.042903 -29.266913 22.816135 -33.887076 7.035515 -3.610208 -57.699888 -2.314166 0.000000 0.000000 0.000000 -7.125000 0.000000 0.000000 -23.767194 31.603407 -8.440958 0.000000 0.000000 0.000000 -25.202757 -16.183502 77.402878 -85.426019 -59.920785 -56.039809 32.738873 -58.709083 10.383953 0.000000 0.000000 0.000000 7.125000 0.000000 0.000000 45.724170 35.407402 15.221127
3.653708 15.590648 31.264085 32.728155 -84.611918 37.762892 0.000000 0.000000 0.000000 0.000000 0.000000 0.000000 0.000000 0.000000 0.000000 0.000000 0.000000 0.000000 0.000000 0.000000 0.000000 0.000000 0.000000 0.000000 -22.068962 24.467653 -95.772338 -2.235059 -9.339378 26.862914 1.137282 -18.475337 -6.755684 -0.205089 -2.915703 8.044194 3.238282 4.515766 9.780218 4.250487 5.624948 7.922030 2.188354 2.632736 2.693272 12.168221 8.981614 -12.929397 3.782754 7.501606 26.568364 0.353427 4.796626 11.218245 0.000000 0.000000 0.000000 22.219922 15.964125 -29.323279 22.846427 -33.920418 7.052408 -3.541828 -57.859159 -2.299168 0.000000 0.000000 0.000000 -7.125000 0.000000 0.000000 -23.712631 31.593005 -8.424783 0.000000 0.000000 0.000000 -25.198946 -16.240619 77.474798 -85.447678 -59.921517 -56.058552 32.695334 -58.845220 10.492554 0.000000 0.000000 0.000000 7.125000 0.000000 0.000000 45.763930 35.508882 15.071025
3.651605 15.588615 31.262817 32.785418 -84.602292 37.813255 0.000000 0.000000 0.000000 0.000000 0.000000 0.000000 0.000000 0.000000 0.000000 0.000000 0.000000 0.000000 0.000000 0.000000 0.000000 0.000000 0.000000 0.000000 -22.099694 24.417774 -95.882419 -2.235290 -9.339800 26.864269 1.136708 -18.470908 -6.749355 -0.202886 -2.900072 8.000643 3.263088 4.494477 9.874811 4.259845 5.598288 7.950833 2.180639 2.618907 2.674413 12.189483 8.987125 -12.967393 3.715897 7.519206 26.562654 0.330295 4.799445 11.227738 0.000000 0.000000 0.000000 22.262638 15.875350 -29.355579 22.868011 -33.944172 7.064446 -3.456371 -57.981174 -2.271854 0.000000 0.000000 0.000000 -7.125000 0.000000 0.000000 -23.642332 31.572149 -8.408606 0.000000 0.000000 0.000000 -25.198498 -16.297325 77.540939 -85.476759 -59.922514 -56.083745 32.636989 -58.999494 10.624735 0.000000 0.000000 0.000000 7.125000 0.000000 0.000000 45.810001 35.633380 14.884849
3.649562 15.586642 31.261549 32.830506 -84.595317 37.868982 0.000000 0.000000 0.000000 0.000000 0.000000 0.000000 0.000000 0.000000 0.000000 0.000000 0.000000 0.000000 0.000000 0.000000 0.000000 0.000000 0.000000 0.000000 -22.128015 24.373320 -95.985629 -2.235219 -9.339800 26.864058 1.136074 -18.466117 -6.743507 -0.201407 -2.889505 7.971195 3.281687 4.481866 9.963438 4.273301 5.582296 7.978731 2.180216 2.609959 2.656519 12.213577 8.985223 -13.006775 3.649462 7.525476 26.560258 0.305355 4.797684 11.238376 0.000000 0.000000 0.000000 22.280884 15.767771 -29.358890 22.872238 -33.948822 7.066842 -3.345481 -58.043945 -2.219650 0.000000 0.000000 0.000000 -7.125000 0.000000 0.000000 -23.547082 31.529597 -8.395502 0.000000 0.000000 0.000000 -25.205402 -16.345231 77.590325 -85.518677 -59.923993 -56.120027 32.567736 -59.162024 10.779938 0.000000 0.000000 0.000000 7.125000 0.000000 0.000000 45.863966 35.779213 14.665888
